<?xml version="1.0" standalone="no"?>
<!DOCTYPE svg PUBLIC "-//W3C//DTD SVG 1.1//EN" "http://www.w3.org/Graphics/SVG/1.1/DTD/svg11.dtd" >
<svg xmlns="http://www.w3.org/2000/svg">
<metadata>
This is a custom SVG webfont generated by Font Squirrel.
Copyright   : Vanessa Lam
Designer    : Vanessa Lam
Foundry     : Vanessa Lam
</metadata>
<defs>
<font id="VeveyRegular" horiz-adv-x="696" >
<font-face units-per-em="2048" ascent="1536" descent="-512" />
<missing-glyph horiz-adv-x="323" />
<glyph unicode=" "  horiz-adv-x="323" />
<glyph unicode="&#x09;" horiz-adv-x="323" />
<glyph unicode="&#xa0;" horiz-adv-x="323" />
<glyph unicode="!" horiz-adv-x="258" d="M57 0v182h142v-182h-142zM57 774v756h142v-756l-33 -432h-76z" />
<glyph unicode="&#x22;" horiz-adv-x="425" d="M49 1348v182h141v-184l-59 -185h-74l43 187h-51zM244 1348v182h141v-184l-59 -185h-74l43 187h-51z" />
<glyph unicode="#" horiz-adv-x="946" d="M137 528v109h164l59 356h-172v109h189l72 426h83l-71 -426h153l72 426h84l-72 -426h127v-109h-145l-59 -356h153v-109h-172l-86 -528h-82l86 528h-155l-86 -528h-82l86 528h-146zM383 637h156l59 356h-156z" />
<glyph unicode="$" d="M78 1165v156q0 39 14 78t43 70.5t72 53t102 27.5v179h78v-179q113 -6 173.5 -60t60.5 -171v-164h-156v164q0 84 -23.5 120t-83.5 40h-24q-57 -4 -80 -43t-23 -117v-201q0 -53 6.5 -78.5t12.5 -33.5q25 -33 47 -62t46 -58.5t50.5 -62t59.5 -71.5q47 -55 77.5 -94.5t49 -71 t26.5 -62t11.5 -70.5t3.5 -95v-132q0 -133 -63.5 -185t-164.5 -58v-181h-78v181q-104 8 -169.5 66.5t-65.5 166.5v240h153v-236q0 -55 8.5 -87t24 -49t37 -22.5t47.5 -5.5q29 0 51.5 5.5t37 22.5t21.5 50t7 86v238q0 35 -41 93t-94 121.5t-107.5 124t-79.5 97.5 q-12 18 -24 33.5t-21.5 42t-15.5 71.5t-6 123z" />
<glyph unicode="%" horiz-adv-x="686" d="M63 1012v305v38q0 22 1.5 42t2.5 37.5t5 25.5q10 35 36.5 54.5t65.5 19.5q37 0 63.5 -19.5t36.5 -54.5q2 -8 4.5 -25.5t3.5 -38t1 -41.5v-38v-305q0 -23 -1 -39.5t-8 -28.5q-27 -51 -102 -51q-72 0 -100 51q-6 12 -7.5 28.5t-1.5 39.5zM125 997q0 -33 8 -53t39 -20h2 q35 0 41 26.5t6 96.5v380q0 35 -7 55.5t-40 20.5h-2q-31 0 -38 -19.5t-7 -53.5q0 -106 -1 -214t-1 -219zM127 -76l354 1678h80l-356 -1678h-78zM397 117v305v38q0 22 1 42t2 37.5t6 25.5q10 35 36.5 54.5t65.5 19.5q37 0 63.5 -19.5t36.5 -54.5q2 -8 4 -25.5t3 -38t1 -41.5 v-38v-305q0 -23 -1 -39.5t-7 -28.5q-27 -51 -102 -51q-72 0 -100 51q-6 12 -7.5 28.5t-1.5 39.5zM459 102q0 -33 8 -53t39 -20h2q35 0 41 26.5t6 96.5v380q0 35 -7 55.5t-40 20.5h-2q-31 0 -38 -19.5t-7 -53.5q0 -106 -1 -214t-1 -219z" />
<glyph unicode="&#x26;" horiz-adv-x="923" d="M68 248v325q0 53 13 90t38.5 68t61.5 61.5t79 71.5q-98 170 -106 398q0 164 61 225t182 61q76 0 125 -17.5t76 -53t36 -92t9 -132.5q-2 -215 -219 -374q41 -74 65.5 -122t44 -87t37 -73t41.5 -77l-4 340h74v-463l199 -397h-158l-82 172q-8 -20 -27.5 -53t-51.5 -64.5 t-77 -54.5t-106 -23q-51 0 -105.5 11.5t-98.5 41t-73.5 82t-33.5 136.5zM226 609q1 -36 1 -70l2 -297q0 -31 5.5 -64t20.5 -61.5t44 -47t74 -18.5q57 0 100 30t70.5 69.5t38 78.5t2.5 58l-273 512l-35 -35q-14 -14 -23 -27.5t-15.5 -28t-8.5 -32.5q-4 -31 -3 -67zM312 1360 q1 -41 1 -98q0 -59 4.5 -100.5t13.5 -76t23.5 -67.5t34.5 -76q33 14 53.5 50t31.5 82t15.5 93t4.5 82t2 76t-5.5 76t-28 57.5t-65.5 22.5q-37 0 -54 -13.5t-24.5 -40t-6.5 -67.5z" />
<glyph unicode="'" horiz-adv-x="237" d="M49 1348v182h141v-184l-59 -185h-74l43 187h-51z" />
<glyph unicode="(" horiz-adv-x="456" d="M113 614q0 129 10 271.5t30.5 270.5t50 228.5t68.5 147.5h60q-27 -43 -49.5 -130t-38 -204t-23.5 -256t-10 -285.5t5 -292t21.5 -274.5t38 -234.5t56.5 -170.5h-60q-35 49 -63.5 152.5t-50 232.5t-33.5 271t-12 273z" />
<glyph unicode=")" horiz-adv-x="456" d="M113 -315q33 66 56.5 171t37.5 234t21.5 274.5t5 292t-10.5 285.5t-23.5 256t-38 204t-48.5 130h59q39 -47 68.5 -147.5t50 -228.5t31 -270.5t10.5 -271.5q0 -131 -12.5 -273t-34 -271t-50 -232.5t-63.5 -152.5h-59z" />
<glyph unicode="*" horiz-adv-x="456" d="M63 1303l99 61l-99 61l33 54l92 -56v113h66v-115l96 58l33 -54l-98 -61l98 -61l-31 -54l-98 60v-111h-66v109l-92 -58z" />
<glyph unicode="+" horiz-adv-x="536" d="M27 776v109h481v-109h-481zM211 590v481h108v-481h-108z" />
<glyph unicode="," horiz-adv-x="251" d="M57 0v182h142v-184l-60 -184h-73l43 186h-52z" />
<glyph unicode="-" horiz-adv-x="471" d="M49 670v108h369v-108h-369z" />
<glyph unicode="." horiz-adv-x="256" d="M57 0v182h142v-182h-142z" />
<glyph unicode="/" horiz-adv-x="747" d="M113 -135l387 1814h110l-389 -1814h-108z" />
<glyph unicode="0" d="M80 268v752q0 41 1 93t3 102.5t6 91.5t10 63q25 82 89.5 131t160.5 49q92 0 157.5 -49t90.5 -131q6 -23 10 -63.5t6 -91t3 -102.5t1 -93v-752q0 -51 -3 -93t-17 -71q-33 -63 -97.5 -95t-152.5 -32q-86 0 -150.5 32t-97.5 95q-14 29 -17 71t-3 93zM231 233 q0 -41 3.5 -73.5t15.5 -57t35.5 -38t62.5 -13.5h2q43 0 66.5 15.5t35 50.5t12.5 93t1 142v938q0 84 -18.5 135.5t-96.5 51.5h-2q-39 0 -61.5 -13.5t-34.5 -37t-15.5 -57.5t-3.5 -73q0 -262 -1 -525.5t-1 -537.5z" />
<glyph unicode="1" horiz-adv-x="585" d="M66 1358l165 172h158v-1452h121v-78h-410v78h131v1352l-108 -127z" />
<glyph unicode="2" d="M82 0q0 111 4 180.5t13.5 118.5t24.5 88t40 86q39 82 92 158t101.5 153.5t81 159.5t32.5 174v195q0 84 -25.5 122t-89.5 38q-66 0 -92 -36t-26 -124v-199h-156v199q0 127 70.5 180t201.5 53q68 0 119 -20.5t85 -52t50.5 -73.5t16.5 -85v-201q0 -96 -35 -182t-86 -166 t-111.5 -159t-111.5 -161q-10 -16 -24.5 -43.5t-27 -65.5t-20.5 -84t-6 -101h424l2 -152h-547z" />
<glyph unicode="3" d="M80 219v176h156v-176q0 -76 20 -117t90 -45q127 0 127 189l2 297q0 43 -1 86t-12 77.5t-37 56t-77 21.5h-82v78h78q45 0 70.5 17.5t39 59.5t16.5 112.5t3 177.5q0 51 -2 96t-13.5 77t-35 50t-66.5 18q-66 -4 -93 -45t-27 -114v-164h-156v164q0 43 20.5 84t57.5 74.5 t88 54t110 20.5q49 0 96.5 -12t85 -43t61.5 -83t24 -132v-168q4 -270 -158 -281q31 -4 59.5 -16t52 -39t37 -73t13.5 -119v-326q0 -86 -26 -138.5t-64.5 -81t-88 -37.5t-94.5 -9q-70 0 -122 20.5t-85.5 53t-50 74.5t-16.5 85z" />
<glyph unicode="4" horiz-adv-x="675" d="M55 276v158l299 1096v2h158v-1098h88v-158h-88v-276h-158v276h-299zM139 434h215v787z" />
<glyph unicode="5" d="M78 313v82h153q0 -61 -1 -122.5t7.5 -110.5t32 -80t76.5 -31q66 0 92.5 27.5t26.5 111.5l4 439q0 43 -1 86t-12.5 77.5t-37 56t-76.5 21.5q-66 0 -93.5 -30.5t-41.5 -102.5l-10 -65h-95q12 147 18.5 259.5t10.5 210t7 189.5t12 199h468v-160h-382l-19 -471q6 2 13.5 9 t19.5 16.5t34.5 16.5t61.5 7q55 0 105.5 -13t88.5 -45t59.5 -87t21.5 -139v-478q0 -35 -16.5 -71.5t-50.5 -67.5t-84 -50.5t-118 -19.5q-96 0 -155.5 35t-92.5 99q-10 20 -15 52t-8 70.5t-3 79.5z" />
<glyph unicode="6" d="M80 1221.5q0 52.5 3 96.5t9 66q25 82 93.5 124t164.5 42q70 0 122 -20.5t86 -53t50.5 -74.5t16.5 -85v-164h-156v164q0 78 -22.5 119t-96.5 41q-68 0 -90 -39t-22 -121q0 -59 -1 -168t-1 -234q14 4 39.5 18.5t80.5 14.5t104.5 -13t86.5 -45t57.5 -87t20.5 -139v-478 q0 -35 -16.5 -71.5t-50.5 -67.5t-84 -50.5t-118 -19.5q-96 0 -155.5 35t-91.5 99q-20 41 -23.5 107.5t-3.5 146.5v301v14v340q0 41 -1 95t-1 106.5zM234.5 235.5q-1.5 -55.5 7 -96.5t32 -64.5t76.5 -23.5q66 0 92.5 27.5t26.5 111.5l4 439q0 43 -1 86t-12 77.5t-37 56 t-77 21.5q-66 0 -86 -42t-24 -91v-385q0 -61 -1.5 -116.5z" />
<glyph unicode="7" d="M82 1450v80h547l-381 -1534h-156l359 1454h-369z" />
<glyph unicode="8" horiz-adv-x="688" d="M70 248v356q0 88 17 141.5t42 83t52.5 41t49.5 15.5q-156 45 -155 280v74q0 76 21.5 134.5t56 97t82 58t100.5 19.5q57 0 108.5 -17.5t90 -54t61 -95t22.5 -140.5v-76q2 -236 -155 -280q23 -4 50.5 -15.5t52 -40t42 -82t17.5 -143.5v-356q0 -94 -29 -147.5t-72 -80 t-91 -32.5t-87 -6q-47 0 -95 6t-89 32.5t-66.5 80t-25.5 147.5zM221 602l2 -360q0 -88 28 -136.5t93 -52.5h6q66 4 93.5 52.5t27.5 136.5l2 360q0 41 -1 83t-10 76t-34 56.5t-70 26.5h-2h-8q-51 0 -76.5 -21.5t-37 -56.5t-12.5 -78t-1 -86zM225 1233q0 -100 5.5 -159.5 t18.5 -92.5t36.5 -45t60.5 -14q39 2 62.5 14t37 45t18.5 92.5t5 159.5q0 63 -3 109.5t-15.5 76t-37 45t-67.5 17.5q-43 -2 -67.5 -17.5t-36 -45t-14.5 -76t-3 -109.5z" />
<glyph unicode="9" d="M76 211v164h155v-164q0 -78 22.5 -119t96.5 -41q68 0 90.5 39t22.5 121q0 59 1 167.5t1 233.5q-14 -4 -40 -18t-81 -14t-104.5 13t-86 45t-57 87t-20.5 139v477q0 33 16.5 70t50 67.5t83.5 51t118 20.5q96 0 155.5 -34.5t92.5 -98.5q20 -41 23 -107.5t3 -146.5v-301v-14 v-340q0 -41 1.5 -95.5t1.5 -106.5t-3.5 -97t-9.5 -66q-25 -82 -93.5 -124t-164.5 -42q-70 0 -122 20.5t-85.5 53.5t-50 75t-16.5 85zM227 899q0 -43 1 -86t12.5 -78t37 -56.5t76.5 -21.5q66 0 86.5 42t24.5 92v385q0 61 1 116.5t-7 96.5t-33 64.5t-76 23.5q-66 0 -92.5 -28 t-26.5 -112z" />
<glyph unicode=":" horiz-adv-x="260" d="M57 -2v182h142v-182h-142zM57 823v183h142v-183h-142z" />
<glyph unicode=";" horiz-adv-x="253" d="M57 0v182h142v-184l-60 -184h-73l43 186h-52zM57 823v183h142v-183h-142z" />
<glyph unicode="&#x3c;" horiz-adv-x="999" d="M119 786v84l758 406v-133l-623 -320l623 -317v-129z" />
<glyph unicode="=" horiz-adv-x="536" d="M27 657v109h481v-109h-481zM27 893v108h481v-108h-481z" />
<glyph unicode="&#x3e;" horiz-adv-x="999" d="M119 377v129l622 317l-622 320v133l758 -406v-84z" />
<glyph unicode="?" horiz-adv-x="718" d="M100 1114v199q0 127 71 184t202 57q68 0 119 -21.5t84.5 -55t50 -76.5t16.5 -86v-201q0 -66 -35 -129t-77 -125.5t-77.5 -126t-37.5 -127.5l-6 -272h-78l-8 268q-2 78 23.5 146.5t57 130t58 121t26.5 118.5v195q0 84 -25.5 126t-88.5 42q-66 0 -92.5 -40t-26.5 -128v-199 h-156zM305 0v182h141v-182h-141z" />
<glyph unicode="@" horiz-adv-x="1157" d="M61 659q0 166 43 323t119 278.5t179.5 196.5t222.5 75q102 0 187 -36t145.5 -112.5t94 -195.5t33.5 -285q0 -96 -18 -180t-53 -158q-47 -100 -106.5 -144t-115 -50t-97.5 17.5t-54 60.5q-45 -53 -107.5 -73t-113.5 14t-77 129t3 267q23 139 68 223.5t99 119t109.5 22.5 t100.5 -64l12 58l117 -2l-100 -561q-12 -66 3 -102t44.5 -39t69.5 29t77 99q18 33 31.5 78t23 94.5t14.5 97.5t5 89q0 147 -27.5 249.5t-80 167t-126 94t-163.5 29.5q-106 0 -196.5 -70.5t-157 -185t-103.5 -259t-37 -291.5t33 -254t85 -178.5t116.5 -110.5t128.5 -51 q68 -12 124 -5t105 27.5t92 50t80 60.5l43 -54q-96 -80 -204.5 -122.5t-248.5 -18.5q-76 14 -151.5 56t-135 120t-97.5 194.5t-38 282.5zM460.5 549q16.5 -78 49.5 -95.5t69.5 18.5t55.5 116l65 366q10 55 -18.5 87t-69.5 28q-33 -2 -73.5 -67.5t-73.5 -227.5 q-21 -147 -4.5 -225z" />
<glyph unicode="A" horiz-adv-x="620" d="M39 -2l170 1534h188l191 -1534h-144l-34 283h-246l-41 -283h-84zM168 360h229l-112 943h-15z" />
<glyph unicode="B" d="M80 -2v858h2v678h219q76 0 133.5 -12.5t95 -43t56 -81.5t18.5 -131v-160v-15q0 -256 -141 -266q31 -4 59.5 -16t52 -39t37 -73t13.5 -119v-314q0 -100 -28 -154.5t-70 -79t-91 -28.5t-94 -4h-262zM238 70h106q127 0 127 188l2 285q0 43 -1 86t-12 77.5t-37 56t-77 21.5 h-108v-714zM240 862h86q45 0 70.5 16.5t39 57.5t16.5 109.5t3 175.5q0 51 -2 96t-13.5 76.5t-35 50t-66.5 18.5h-98v-600z" />
<glyph unicode="C" d="M70 1221.5q0 52.5 3 96.5t9 66q25 82 93.5 124t164.5 42q70 0 122 -20.5t86 -53t50 -74.5t16 -85v-164h-155v164q0 78 -22.5 119t-96.5 41q-68 0 -90.5 -39t-22.5 -121v-138q0 -83 -1 -200t-1 -272v-355q0 -61 -1 -116v-13q0 -48 7 -84q8 -41 32 -64.5t77 -23.5 q66 0 92.5 27.5t26.5 111.5v224h155v-228q0 -35 -16 -71.5t-50 -67.5t-84 -50.5t-118 -19.5q-96 0 -155.5 35t-92.5 99q-20 41 -23 107.5t-3 146.5v655q0 41 -1 95t-1 106.5z" />
<glyph unicode="D" d="M74 -4v1536h305q37 0 80 -11.5t77.5 -36t58 -65.5t23.5 -98v-1059q0 -92 -31.5 -145.5t-76.5 -80t-91 -33.5t-73 -7h-272zM231 68h117q49 0 83 38.5t34 116.5v88v109v165q0 91 1 190t1 189v157v98q0 51 -1 96t-10.5 76.5t-28.5 50t-58 18.5h-138v-1392z" />
<glyph unicode="E" horiz-adv-x="505" d="M55 1530h414v-80h-254v-594h236v-78h-236l2 -700h250v-78h-410z" />
<glyph unicode="F" horiz-adv-x="536" d="M86 1530h414v-80h-254v-590h235v-78h-235q3 -169 3 -325v-77q-1 -191 -1 -380h-160z" />
<glyph unicode="G" horiz-adv-x="698" d="M82 215v150v655q0 41 1 93t3 102.5t6 91.5t10 63q25 82 91.5 131t154.5 49q70 0 122 -18.5t87 -50t51.5 -73.5t16.5 -91v-164h-154v162q0 96 -27.5 129t-93.5 33q-49 0 -73.5 -21.5t-33.5 -58.5q-8 -33 -9 -77q0 -18 1 -57t1 -61v-850q0 -61 -2 -116v-11q0 -48 9 -86 q9 -41 33.5 -64.5t77.5 -23.5q66 0 90.5 27.5t24.5 111.5v592h-141v78h297v-649q0 -49 -12.5 -91t-43 -74t-83 -50.5t-132.5 -18.5q-66 0 -106.5 8.5t-68 24t-44 40t-33.5 54.5q-20 41 -20 111z" />
<glyph unicode="H" horiz-adv-x="737" d="M100 1530h160v-672h227v672h158v-1530h-158v780h-227v-780h-158z" />
<glyph unicode="I" horiz-adv-x="325" d="M84 -4v1536h158v-1536h-158z" />
<glyph unicode="J" horiz-adv-x="692" d="M47 268v142v4h154v-62q0 -31 -1 -60.5t-1 -58.5q0 -41 3 -73.5t15 -57t35.5 -38t62.5 -13.5h2q43 0 67 15.5t35 50.5t12 93t1 142v1178h154v-4v-1258q0 -51 -3 -93t-18 -71q-16 -31 -34.5 -55t-46 -39.5t-68.5 -24t-105 -8.5q-106 0 -158.5 32t-84.5 95q-14 29 -17.5 71 t-3.5 93z" />
<glyph unicode="K" horiz-adv-x="657" d="M76 -2v1536h157v-594l302 594h79l-252 -496l261 -1040h-158l-207 838l-25 -52v-786h-157z" />
<glyph unicode="L" horiz-adv-x="497" d="M55 1530h160l2 -1448h250v-82h-410z" />
<glyph unicode="M" horiz-adv-x="761" d="M55 -2v1538h156l166 -1018l168 1014h157v-1536h-157v1048l-127 -768h-158l-125 768v-1046h-80z" />
<glyph unicode="N" horiz-adv-x="698" d="M80 0v1530h80l387 -1088v1088h80v-1530h-78l-389 1098v-1098h-80z" />
<glyph unicode="O" d="M78 268v752q0 41 1 93t3 102.5t6 91.5t10 63q25 82 89.5 131t160.5 49q92 0 157.5 -49t90.5 -131q6 -23 10 -63.5t6 -91t3 -102.5t1 -93v-752q0 -51 -3 -93t-17 -71q-33 -63 -97.5 -95t-152.5 -32q-86 0 -150.5 32t-97.5 95q-14 29 -17 71t-3 93zM229 233 q0 -41 3.5 -73.5t15.5 -57t35.5 -38t62.5 -13.5h2q43 0 66.5 15.5t35 50.5t12.5 93t1 142v938q0 84 -18.5 135.5t-96.5 51.5h-2q-39 0 -61.5 -13.5t-34.5 -37t-15.5 -57.5t-3.5 -73q0 -262 -1 -525.5t-1 -537.5z" />
<glyph unicode="P" horiz-adv-x="647" d="M57 0l2 1532h297q47 0 92.5 -9.5t79 -33t54 -65.5t20.5 -107v-338q0 -199 -242 -199h-145v-780h-158zM217 860h141q33 0 51.5 18.5t26.5 41.5q8 25 10 59v72q0 33 1.5 76.5t1.5 91.5v96q0 45 -7.5 76.5t-26 50t-55.5 18.5h-143v-600z" />
<glyph unicode="Q" horiz-adv-x="747" d="M90 268v752q0 41 1 93t3 102.5t6 91.5t11 63q25 82 89 131t160 49q92 0 158 -49t90 -131q6 -23 10.5 -63.5t6.5 -91t3 -102.5t1 -93v-752q0 -51 -3 -93t-18 -71q-18 -35 -47 -61l164 8v-74h-350h-17q-86 0 -150.5 32t-96.5 95q-14 29 -17.5 71t-3.5 93zM242 233 q0 -41 3 -73.5t15 -57t35.5 -38t62.5 -13.5h2q43 0 67 15.5t35 50.5t12 93t1 142v938q0 84 -18.5 135.5t-96.5 51.5h-2q-39 0 -61.5 -13.5t-34.5 -37t-15 -57.5t-3 -73q0 -262 -1 -525.5t-1 -537.5z" />
<glyph unicode="R" d="M84 0l2 1532h279q37 0 79.5 -9.5t79.5 -33t61.5 -65.5t24.5 -107v-338q-4 -166 -215 -199q8 -29 23.5 -77t34 -107t39 -127t40.5 -133q47 -156 101 -336h-156l-219 780h-16v-104v-676h-158zM244 860h123q33 0 51 18.5t26 41.5q8 25 11 59v72q0 33 1 76.5t1 91.5v96 q0 45 -7.5 76.5t-25.5 50t-55 18.5h-125v-600z" />
<glyph unicode="S" d="M78 1165v156q0 43 16.5 85t50 73.5t85 52t118.5 20.5q131 0 202 -53t71 -180v-164h-156v164q0 88 -26.5 124t-92.5 36q-63 0 -89 -38t-26 -122v-201q0 -53 6.5 -78.5t12.5 -33.5q25 -33 47 -62t46 -58.5t50.5 -62t59.5 -71.5q47 -55 77.5 -94.5t49 -71t26.5 -62 t11.5 -70.5t3.5 -95v-132q0 -74 -20.5 -122t-56.5 -75.5t-86 -37.5t-108 -10q-117 0 -193.5 59t-76.5 176v240h153v-236q0 -55 8.5 -87t24 -49t37 -22.5t47.5 -5.5q29 0 51.5 5.5t37 22.5t21.5 50t7 86v238q0 35 -41 93t-94 121.5t-107.5 124t-79.5 97.5q-12 18 -24 33.5 t-21.5 42t-15.5 71.5t-6 123z" />
<glyph unicode="T" horiz-adv-x="647" d="M49 1450v80h545v-80h-195v-1450h-157v1450h-193z" />
<glyph unicode="U" d="M82 268v1258v4h154v-1178q0 -31 -1.5 -60.5t-1.5 -58.5q0 -41 3.5 -73.5t15.5 -57t35.5 -38t62.5 -13.5h2q43 0 66.5 15.5t35 50.5t12.5 93t1 142v1178h154v-4v-1258q0 -51 -3.5 -93t-17.5 -71q-33 -63 -95.5 -95t-133.5 -32h-41q-72 0 -133.5 32t-94.5 95q-14 29 -17 71 t-3 93z" />
<glyph unicode="V" d="M78 1530h151l170 -1059l138 1059h81l-202 -1530h-117z" />
<glyph unicode="W" horiz-adv-x="866" d="M66 1530h151l96 -1002l80 846h135l86 -846l107 1002h84l-160 -1530h-108l-105 948l-90 -948h-117z" />
<glyph unicode="X" d="M74 1530h155l160 -623l154 623h80l-197 -764l199 -766h-158l-158 612l-155 -612h-78l196 752z" />
<glyph unicode="Y" horiz-adv-x="653" d="M49 1530h154l151 -684l166 684h78l-201 -862v-668h-157v666z" />
<glyph unicode="Z" d="M72 0l374 1450h-370v80h545l-365 -1446h365v-84h-549z" />
<glyph unicode="[" horiz-adv-x="468" d="M82 -313v1843h309v-80h-192v-1683h192v-80h-309z" />
<glyph unicode="\" horiz-adv-x="747" d="M113 1679h110l387 -1814h-108z" />
<glyph unicode="]" horiz-adv-x="473" d="M82 -233h192v1683h-192v80h309v-1843h-309v80z" />
<glyph unicode="^" horiz-adv-x="524" d="M57 1323l172 213h66l170 -213h-98l-107 125l-104 -125h-99z" />
<glyph unicode="_" horiz-adv-x="659" d="M55 2h551v-106h-551v106z" />
<glyph unicode="`" horiz-adv-x="325" d="M53 1821h119l88 -213h-74z" />
<glyph unicode="a" horiz-adv-x="620" d="M39 -2l170 1534h188l191 -1534h-144l-34 283h-246l-41 -283h-84zM168 360h229l-112 943h-15z" />
<glyph unicode="b" d="M80 -2v858h2v678h219q76 0 133.5 -12.5t95 -43t56 -81.5t18.5 -131v-160v-15q0 -256 -141 -266q31 -4 59.5 -16t52 -39t37 -73t13.5 -119v-314q0 -100 -28 -154.5t-70 -79t-91 -28.5t-94 -4h-262zM238 70h106q127 0 127 188l2 285q0 43 -1 86t-12 77.5t-37 56t-77 21.5 h-108v-714zM240 862h86q45 0 70.5 16.5t39 57.5t16.5 109.5t3 175.5q0 51 -2 96t-13.5 76.5t-35 50t-66.5 18.5h-98v-600z" />
<glyph unicode="c" d="M70 1221.5q0 52.5 3 96.5t9 66q25 82 93.5 124t164.5 42q70 0 122 -20.5t86 -53t50 -74.5t16 -85v-164h-155v164q0 78 -22.5 119t-96.5 41q-68 0 -90.5 -39t-22.5 -121v-138q0 -83 -1 -200t-1 -272v-355q0 -61 -1 -116v-13q0 -48 7 -84q8 -41 32 -64.5t77 -23.5 q66 0 92.5 27.5t26.5 111.5v224h155v-228q0 -35 -16 -71.5t-50 -67.5t-84 -50.5t-118 -19.5q-96 0 -155.5 35t-92.5 99q-20 41 -23 107.5t-3 146.5v655q0 41 -1 95t-1 106.5z" />
<glyph unicode="d" d="M74 -4v1536h305q37 0 80 -11.5t77.5 -36t58 -65.5t23.5 -98v-1059q0 -92 -31.5 -145.5t-76.5 -80t-91 -33.5t-73 -7h-272zM231 68h117q49 0 83 38.5t34 116.5v88v109v165q0 91 1 190t1 189v157v98q0 51 -1 96t-10.5 76.5t-28.5 50t-58 18.5h-138v-1392z" />
<glyph unicode="e" horiz-adv-x="505" d="M55 1530h414v-80h-254v-594h236v-78h-236l2 -700h250v-78h-410z" />
<glyph unicode="f" horiz-adv-x="536" d="M86 1530h414v-80h-254v-590h235v-78h-235q3 -169 3 -325v-77q-1 -191 -1 -380h-160z" />
<glyph unicode="g" horiz-adv-x="698" d="M82 215v150v655q0 41 1 93t3 102.5t6 91.5t10 63q25 82 91.5 131t154.5 49q70 0 122 -18.5t87 -50t51.5 -73.5t16.5 -91v-164h-154v162q0 96 -27.5 129t-93.5 33q-49 0 -73.5 -21.5t-33.5 -58.5q-8 -33 -9 -77q0 -18 1 -57t1 -61v-850q0 -61 -2 -116v-11q0 -48 9 -86 q9 -41 33.5 -64.5t77.5 -23.5q66 0 90.5 27.5t24.5 111.5v592h-141v78h297v-649q0 -49 -12.5 -91t-43 -74t-83 -50.5t-132.5 -18.5q-66 0 -106.5 8.5t-68 24t-44 40t-33.5 54.5q-20 41 -20 111z" />
<glyph unicode="h" horiz-adv-x="737" d="M100 1530h160v-672h227v672h158v-1530h-158v780h-227v-780h-158z" />
<glyph unicode="i" horiz-adv-x="325" d="M84 -4v1536h158v-1536h-158z" />
<glyph unicode="j" horiz-adv-x="692" d="M47 268v142v4h154v-62q0 -31 -1 -60.5t-1 -58.5q0 -41 3 -73.5t15 -57t35.5 -38t62.5 -13.5h2q43 0 67 15.5t35 50.5t12 93t1 142v1178h154v-4v-1258q0 -51 -3 -93t-18 -71q-16 -31 -34.5 -55t-46 -39.5t-68.5 -24t-105 -8.5q-106 0 -158.5 32t-84.5 95q-14 29 -17.5 71 t-3.5 93z" />
<glyph unicode="k" horiz-adv-x="657" d="M76 -2v1536h157v-594l302 594h79l-252 -496l261 -1040h-158l-207 838l-25 -52v-786h-157z" />
<glyph unicode="l" horiz-adv-x="497" d="M55 1530h160l2 -1448h250v-82h-410z" />
<glyph unicode="m" horiz-adv-x="761" d="M55 -2v1538h156l166 -1018l168 1014h157v-1536h-157v1048l-127 -768h-158l-125 768v-1046h-80z" />
<glyph unicode="n" horiz-adv-x="698" d="M80 0v1530h80l387 -1088v1088h80v-1530h-78l-389 1098v-1098h-80z" />
<glyph unicode="o" d="M78 268v752q0 41 1 93t3 102.5t6 91.5t10 63q25 82 89.5 131t160.5 49q92 0 157.5 -49t90.5 -131q6 -23 10 -63.5t6 -91t3 -102.5t1 -93v-752q0 -51 -3 -93t-17 -71q-33 -63 -97.5 -95t-152.5 -32q-86 0 -150.5 32t-97.5 95q-14 29 -17 71t-3 93zM229 233 q0 -41 3.5 -73.5t15.5 -57t35.5 -38t62.5 -13.5h2q43 0 66.5 15.5t35 50.5t12.5 93t1 142v938q0 84 -18.5 135.5t-96.5 51.5h-2q-39 0 -61.5 -13.5t-34.5 -37t-15.5 -57.5t-3.5 -73q0 -262 -1 -525.5t-1 -537.5z" />
<glyph unicode="p" horiz-adv-x="647" d="M57 0l2 1532h297q47 0 92.5 -9.5t79 -33t54 -65.5t20.5 -107v-338q0 -199 -242 -199h-145v-780h-158zM217 860h141q33 0 51.5 18.5t26.5 41.5q8 25 10 59v72q0 33 1.5 76.5t1.5 91.5v96q0 45 -7.5 76.5t-26 50t-55.5 18.5h-143v-600z" />
<glyph unicode="q" horiz-adv-x="747" d="M90 268v752q0 41 1 93t3 102.5t6 91.5t11 63q25 82 89 131t160 49q92 0 158 -49t90 -131q6 -23 10.5 -63.5t6.5 -91t3 -102.5t1 -93v-752q0 -51 -3 -93t-18 -71q-18 -35 -47 -61l164 8v-74h-350h-17q-86 0 -150.5 32t-96.5 95q-14 29 -17.5 71t-3.5 93zM242 233 q0 -41 3 -73.5t15 -57t35.5 -38t62.5 -13.5h2q43 0 67 15.5t35 50.5t12 93t1 142v938q0 84 -18.5 135.5t-96.5 51.5h-2q-39 0 -61.5 -13.5t-34.5 -37t-15 -57.5t-3 -73q0 -262 -1 -525.5t-1 -537.5z" />
<glyph unicode="r" d="M84 0l2 1532h279q37 0 79.5 -9.5t79.5 -33t61.5 -65.5t24.5 -107v-338q-4 -166 -215 -199q8 -29 23.5 -77t34 -107t39 -127t40.5 -133q47 -156 101 -336h-156l-219 780h-16v-104v-676h-158zM244 860h123q33 0 51 18.5t26 41.5q8 25 11 59v72q0 33 1 76.5t1 91.5v96 q0 45 -7.5 76.5t-25.5 50t-55 18.5h-125v-600z" />
<glyph unicode="s" d="M78 1165v156q0 43 16.5 85t50 73.5t85 52t118.5 20.5q131 0 202 -53t71 -180v-164h-156v164q0 88 -26.5 124t-92.5 36q-63 0 -89 -38t-26 -122v-201q0 -53 6.5 -78.5t12.5 -33.5q25 -33 47 -62t46 -58.5t50.5 -62t59.5 -71.5q47 -55 77.5 -94.5t49 -71t26.5 -62 t11.5 -70.5t3.5 -95v-132q0 -74 -20.5 -122t-56.5 -75.5t-86 -37.5t-108 -10q-117 0 -193.5 59t-76.5 176v240h153v-236q0 -55 8.5 -87t24 -49t37 -22.5t47.5 -5.5q29 0 51.5 5.5t37 22.5t21.5 50t7 86v238q0 35 -41 93t-94 121.5t-107.5 124t-79.5 97.5q-12 18 -24 33.5 t-21.5 42t-15.5 71.5t-6 123z" />
<glyph unicode="t" horiz-adv-x="647" d="M49 1450v80h545v-80h-195v-1450h-157v1450h-193z" />
<glyph unicode="u" d="M82 268v1258v4h154v-1178q0 -31 -1.5 -60.5t-1.5 -58.5q0 -41 3.5 -73.5t15.5 -57t35.5 -38t62.5 -13.5h2q43 0 66.5 15.5t35 50.5t12.5 93t1 142v1178h154v-4v-1258q0 -51 -3.5 -93t-17.5 -71q-33 -63 -95.5 -95t-133.5 -32h-41q-72 0 -133.5 32t-94.5 95q-14 29 -17 71 t-3 93z" />
<glyph unicode="v" d="M78 1530h151l170 -1059l138 1059h81l-202 -1530h-117z" />
<glyph unicode="w" horiz-adv-x="866" d="M66 1530h151l96 -1002l80 846h135l86 -846l107 1002h84l-160 -1530h-108l-105 948l-90 -948h-117z" />
<glyph unicode="x" d="M74 1530h155l160 -623l154 623h80l-197 -764l199 -766h-158l-158 612l-155 -612h-78l196 752z" />
<glyph unicode="y" horiz-adv-x="653" d="M49 1530h154l151 -684l166 684h78l-201 -862v-668h-157v666z" />
<glyph unicode="z" d="M72 0l374 1450h-370v80h545l-365 -1446h365v-84h-549z" />
<glyph unicode="|" horiz-adv-x="245" d="M63 -104v1734h107v-1734h-107z" />
<glyph unicode="&#xa5;" horiz-adv-x="653" d="M49 1530h154l151 -684l166 684h78l-201 -862v-15h162v-82h-162v-118h162v-82h-162v-371h-157v371h-162v82h162v118h-162v82h162v13z" />
<glyph unicode="&#xa8;" horiz-adv-x="526" d="M102 1608v161h121v-161h-121zM289 1608v161h121v-161h-121z" />
<glyph unicode="&#xaa;" horiz-adv-x="620" d="M39 -2l170 1534h188l191 -1534h-144l-34 283h-246l-41 -283h-84zM168 360h229l-112 943h-15z" />
<glyph unicode="&#xad;" horiz-adv-x="471" d="M49 670v108h369v-108h-369z" />
<glyph unicode="&#xb2;" d="M82 0q0 111 4 180.5t13.5 118.5t24.5 88t40 86q39 82 92 158t101.5 153.5t81 159.5t32.5 174v195q0 84 -25.5 122t-89.5 38q-66 0 -92 -36t-26 -124v-199h-156v199q0 127 70.5 180t201.5 53q68 0 119 -20.5t85 -52t50.5 -73.5t16.5 -85v-201q0 -96 -35 -182t-86 -166 t-111.5 -159t-111.5 -161q-10 -16 -24.5 -43.5t-27 -65.5t-20.5 -84t-6 -101h424l2 -152h-547z" />
<glyph unicode="&#xb3;" d="M80 219v176h156v-176q0 -76 20 -117t90 -45q127 0 127 189l2 297q0 43 -1 86t-12 77.5t-37 56t-77 21.5h-82v78h78q45 0 70.5 17.5t39 59.5t16.5 112.5t3 177.5q0 51 -2 96t-13.5 77t-35 50t-66.5 18q-66 -4 -93 -45t-27 -114v-164h-156v164q0 43 20.5 84t57.5 74.5 t88 54t110 20.5q49 0 96.5 -12t85 -43t61.5 -83t24 -132v-168q4 -270 -158 -281q31 -4 59.5 -16t52 -39t37 -73t13.5 -119v-326q0 -86 -26 -138.5t-64.5 -81t-88 -37.5t-94.5 -9q-70 0 -122 20.5t-85.5 53t-50 74.5t-16.5 85z" />
<glyph unicode="&#xb9;" horiz-adv-x="585" d="M66 1358l165 172h158v-1452h121v-78h-410v78h131v1352l-108 -127z" />
<glyph unicode="&#xba;" d="M78 268v752q0 41 1 93t3 102.5t6 91.5t10 63q25 82 89.5 131t160.5 49q92 0 157.5 -49t90.5 -131q6 -23 10 -63.5t6 -91t3 -102.5t1 -93v-752q0 -51 -3 -93t-17 -71q-33 -63 -97.5 -95t-152.5 -32q-86 0 -150.5 32t-97.5 95q-14 29 -17 71t-3 93zM229 233 q0 -41 3.5 -73.5t15.5 -57t35.5 -38t62.5 -13.5h2q43 0 66.5 15.5t35 50.5t12.5 93t1 142v938q0 84 -18.5 135.5t-96.5 51.5h-2q-39 0 -61.5 -13.5t-34.5 -37t-15.5 -57.5t-3.5 -73q0 -262 -1 -525.5t-1 -537.5z" />
<glyph unicode="&#xbc;" horiz-adv-x="2285" d="M1665 276v158l299 1096v2h158v-1098h88v-158h-88v-276h-158v276h-299zM1749 434h215v787zM699 -135l387 1814h110l-389 -1814h-108zM66 1358l165 172h158v-1452h121v-78h-410v78h131v1352l-108 -127z" />
<glyph unicode="&#xbd;" horiz-adv-x="2306" d="M1692 0q0 111 4 180.5t13.5 118.5t24.5 88t40 86q39 82 92 158t101.5 153.5t81 159.5t32.5 174v195q0 84 -25.5 122t-89.5 38q-66 0 -92 -36t-26 -124v-199h-156v199q0 127 70.5 180t201.5 53q68 0 119 -20.5t85 -52t50.5 -73.5t16.5 -85v-201q0 -96 -35 -182t-86 -166 t-111.5 -159t-111.5 -161q-10 -16 -24.5 -43.5t-27 -65.5t-20.5 -84t-6 -101h424l2 -152h-547zM699 -135l387 1814h110l-389 -1814h-108zM66 1358l165 172h158v-1452h121v-78h-410v78h131v1352l-108 -127z" />
<glyph unicode="&#xbe;" horiz-adv-x="2396" d="M1775 276v158l299 1096v2h158v-1098h88v-158h-88v-276h-158v276h-299zM1859 434h215v787zM809 -135l387 1814h110l-389 -1814h-108zM80 219v176h156v-176q0 -76 20 -117t90 -45q127 0 127 189l2 297q0 43 -1 86t-12 77.5t-37 56t-77 21.5h-82v78h78q45 0 70.5 17.5 t39 59.5t16.5 112.5t3 177.5q0 51 -2 96t-13.5 77t-35 50t-66.5 18q-66 -4 -93 -45t-27 -114v-164h-156v164q0 43 20.5 84t57.5 74.5t88 54t110 20.5q49 0 96.5 -12t85 -43t61.5 -83t24 -132v-168q4 -270 -158 -281q31 -4 59.5 -16t52 -39t37 -73t13.5 -119v-326 q0 -86 -26 -138.5t-64.5 -81t-88 -37.5t-94.5 -9q-70 0 -122 20.5t-85.5 53t-50 74.5t-16.5 85z" />
<glyph unicode="&#xbf;" horiz-adv-x="718" d="M100 0q0 66 35 129.5t77 125.5t78 124.5t38 128.5l6 272h78l8 -268q2 -78 -23.5 -146.5t-57.5 -130t-58.5 -121t-26.5 -118.5v-195q0 -84 25.5 -121.5t89.5 -37.5q66 0 92 35.5t26 123.5v199h156v-199q0 -127 -70.5 -180t-201.5 -53q-68 0 -119 20.5t-85 52t-50.5 73.5 t-16.5 85v201zM297 932v182h141v-182h-141z" />
<glyph unicode="&#xc0;" horiz-adv-x="647" d="M59 -2l170 1534h189l190 -1534h-143l-35 283h-246l-41 -283h-84zM164 1821h119l88 -213h-74zM188 360h230l-113 943h-14z" />
<glyph unicode="&#xc1;" horiz-adv-x="714" d="M72 -2l170 1534h188l191 -1534h-144l-35 283h-245l-41 -283h-84zM201 360h229l-113 943h-14zM254 1608l88 213h119l-133 -213h-74z" />
<glyph unicode="&#xc2;" horiz-adv-x="620" d="M39 -2l170 1534h188l191 -1534h-144l-34 283h-246l-41 -283h-84zM92 1608l172 213h66l170 -213h-99l-106 125l-105 -125h-98zM168 360h229l-112 943h-15z" />
<glyph unicode="&#xc3;" horiz-adv-x="698" d="M80 -2l170 1534h188l191 -1534h-144l-34 283h-246l-41 -283h-84zM115 1610q0 78 32.5 120t96.5 42q25 0 49 -4.5t63 -32.5q27 -18 47.5 -36t49.5 -18q27 0 47 14.5t20 63.5h62q0 -78 -33 -120t-96 -42q-25 0 -54.5 8.5t-58.5 28.5q-29 18 -48.5 36t-47.5 18 q-27 0 -47.5 -14.5t-20.5 -63.5h-61zM209 360h229l-112 943h-15z" />
<glyph unicode="&#xc4;" horiz-adv-x="620" d="M39 -2l170 1534h188l191 -1534h-144l-34 283h-246l-41 -283h-84zM152 1608v161h120v-161h-120zM168 360h229l-112 943h-15zM338 1608v161h121v-161h-121z" />
<glyph unicode="&#xc7;" d="M70 1221.5q0 52.5 3 96.5t9 66q25 82 93.5 124t164.5 42q70 0 122 -20.5t86 -53t50 -74.5t16 -85v-164h-155v164q0 78 -22.5 119t-96.5 41q-68 0 -90.5 -39t-22.5 -121v-138q0 -83 -1 -200t-1 -272v-355q0 -61 -1 -116.5t7.5 -96.5t32 -64.5t76.5 -23.5q66 0 92.5 27.5 t26.5 111.5v224h155v-228q0 -33 -15 -67.5t-46 -64t-77 -51t-107 -23.5l-29 -89q47 10 81 -7t52.5 -48t19.5 -67.5t-19.5 -66.5t-62.5 -45t-108 -3l-2 65q45 -12 72.5 -5t41 24.5t13.5 39t-13.5 38t-38 21.5t-57.5 -11l-51 35l35 119q-78 8 -127 40.5t-78 90.5 q-20 41 -23 107.5t-3 146.5v655q0 41 -1 95t-1 106.5z" />
<glyph unicode="&#xc8;" horiz-adv-x="505" d="M55 1530h414v-80h-254v-594h236v-78h-236l2 -700h250v-78h-410zM125 1821h119l88 -213h-74z" />
<glyph unicode="&#xc9;" horiz-adv-x="505" d="M55 1530h414v-80h-254v-594h236v-78h-236l2 -700h250v-78h-410zM162 1608l88 213h119l-133 -213h-74z" />
<glyph unicode="&#xca;" horiz-adv-x="505" d="M55 1530h414v-80h-254v-594h236v-78h-236l2 -700h250v-78h-410zM57 1608l172 213h66l170 -213h-98l-107 125l-104 -125h-99z" />
<glyph unicode="&#xcb;" horiz-adv-x="505" d="M55 1530h414v-80h-254v-594h236v-78h-236l2 -700h250v-78h-410zM102 1608v161h121v-161h-121zM289 1608v161h121v-161h-121z" />
<glyph unicode="&#xcc;" horiz-adv-x="432" d="M70 1821h118l88 -213h-73zM139 -4v1536h158v-1536h-158z" />
<glyph unicode="&#xcd;" horiz-adv-x="505" d="M145 -4v1536h158v-1536h-158zM162 1608l88 213h119l-133 -213h-74z" />
<glyph unicode="&#xce;" horiz-adv-x="530" d="M57 1608l172 213h66l170 -213h-98l-107 125l-104 -125h-99zM178 -4v1536h158v-1536h-158z" />
<glyph unicode="&#xcf;" horiz-adv-x="514" d="M102 1608v161h121v-161h-121zM178 -4v1536h158v-1536h-158zM289 1608v161h121v-161h-121z" />
<glyph unicode="&#xd1;" horiz-adv-x="698" d="M80 0v1530h80l387 -1088v1088h80v-1530h-78l-389 1098v-1098h-80zM115 1610q0 78 32.5 120t96.5 42q25 0 49 -4.5t63 -32.5q27 -18 47.5 -36t49.5 -18q27 0 47 14.5t20 63.5h62q0 -78 -33 -120t-96 -42q-25 0 -54.5 8.5t-58.5 28.5q-29 18 -48.5 36t-47.5 18 q-27 0 -47.5 -14.5t-20.5 -63.5h-61z" />
<glyph unicode="&#xd2;" horiz-adv-x="677" d="M78 268v752q0 41 1 93t3 102.5t6 91.5t10 63q25 82 89.5 131t160.5 49q92 0 157.5 -49t90.5 -131q6 -23 10 -63.5t6 -91t3 -102.5t1 -93v-752q0 -51 -3 -93t-17 -71q-33 -63 -97.5 -95t-152.5 -32q-86 0 -150.5 32t-97.5 95q-14 29 -17 71t-3 93zM207 1821h119l88 -213 h-74zM229 233q0 -41 3.5 -73.5t15.5 -57t35.5 -38t62.5 -13.5h2q43 0 66.5 15.5t35 50.5t12.5 93t1 142v938q0 84 -18.5 135.5t-96.5 51.5h-2q-39 0 -61.5 -13.5t-34.5 -37t-15.5 -57.5t-3.5 -73q0 -262 -1 -525.5t-1 -537.5z" />
<glyph unicode="&#xd3;" horiz-adv-x="681" d="M78 268v752q0 41 1 93t3 102.5t6 91.5t10 63q25 82 89.5 131t160.5 49q92 0 157.5 -49t90.5 -131q6 -23 10 -63.5t6 -91t3 -102.5t1 -93v-752q0 -51 -3 -93t-17 -71q-33 -63 -97.5 -95t-152.5 -32q-86 0 -150.5 32t-97.5 95q-14 29 -17 71t-3 93zM229 233 q0 -41 3.5 -73.5t15.5 -57t35.5 -38t62.5 -13.5h2q43 0 66.5 15.5t35 50.5t12.5 93t1 142v938q0 84 -18.5 135.5t-96.5 51.5h-2q-39 0 -61.5 -13.5t-34.5 -37t-15.5 -57.5t-3.5 -73q0 -262 -1 -525.5t-1 -537.5zM276 1608l89 213h118l-133 -213h-74z" />
<glyph unicode="&#xd4;" d="M78 268v752q0 41 1 93t3 102.5t6 91.5t10 63q25 82 89.5 131t160.5 49q92 0 157.5 -49t90.5 -131q6 -23 10 -63.5t6 -91t3 -102.5t1 -93v-752q0 -51 -3 -93t-17 -71q-33 -63 -97.5 -95t-152.5 -32q-86 0 -150.5 32t-97.5 95q-14 29 -17 71t-3 93zM145 1608l172 213h66 l170 -213h-98l-107 125l-104 -125h-99zM229 233q0 -41 3.5 -73.5t15.5 -57t35.5 -38t62.5 -13.5h2q43 0 66.5 15.5t35 50.5t12.5 93t1 142v938q0 84 -18.5 135.5t-96.5 51.5h-2q-39 0 -61.5 -13.5t-34.5 -37t-15.5 -57.5t-3.5 -73q0 -262 -1 -525.5t-1 -537.5z" />
<glyph unicode="&#xd5;" d="M78 268v752q0 41 1 93t3 102.5t6 91.5t10 63q25 82 89.5 131t160.5 49q92 0 157.5 -49t90.5 -131q6 -23 10 -63.5t6 -91t3 -102.5t1 -93v-752q0 -51 -3 -93t-17 -71q-33 -63 -97.5 -95t-152.5 -32q-86 0 -150.5 32t-97.5 95q-14 29 -17 71t-3 93zM115 1610q0 78 32.5 120 t96.5 42q25 0 49 -4.5t63 -32.5q27 -18 47.5 -36t49.5 -18q27 0 47 14.5t20 63.5h62q0 -78 -33 -120t-96 -42q-25 0 -54.5 8.5t-58.5 28.5q-29 18 -48.5 36t-47.5 18q-27 0 -47.5 -14.5t-20.5 -63.5h-61zM229 233q0 -41 3.5 -73.5t15.5 -57t35.5 -38t62.5 -13.5h2 q43 0 66.5 15.5t35 50.5t12.5 93t1 142v938q0 84 -18.5 135.5t-96.5 51.5h-2q-39 0 -61.5 -13.5t-34.5 -37t-15.5 -57.5t-3.5 -73q0 -262 -1 -525.5t-1 -537.5z" />
<glyph unicode="&#xd6;" d="M78 268v752q0 41 1 93t3 102.5t6 91.5t10 63q25 82 89.5 131t160.5 49q92 0 157.5 -49t90.5 -131q6 -23 10 -63.5t6 -91t3 -102.5t1 -93v-752q0 -51 -3 -93t-17 -71q-33 -63 -97.5 -95t-152.5 -32q-86 0 -150.5 32t-97.5 95q-14 29 -17 71t-3 93zM188 1608v161h121v-161 h-121zM229 233q0 -41 3.5 -73.5t15.5 -57t35.5 -38t62.5 -13.5h2q43 0 66.5 15.5t35 50.5t12.5 93t1 142v938q0 84 -18.5 135.5t-96.5 51.5h-2q-39 0 -61.5 -13.5t-34.5 -37t-15.5 -57.5t-3.5 -73q0 -262 -1 -525.5t-1 -537.5zM375 1608v161h121v-161h-121z" />
<glyph unicode="&#xd8;" d="M78 268v752q0 41 1 93t3 102.5t6 91.5t10 63q25 82 89.5 131t160.5 49q63 0 121 -26l31 139h110l-49 -221q10 -16 19.5 -33.5t15.5 -38.5q6 -23 10 -63.5t6 -91t3 -102.5t1 -93v-752q0 -51 -3 -93t-17 -71q-33 -63 -97.5 -95t-152.5 -32q-55 0 -98 13l-27 -125h-108 l37 174q-16 14 -28.5 29.5t-23.5 35.5q-14 29 -17 71t-3 93zM229 406l217 1011q-10 29 -33.5 44.5t-64.5 15.5h-2q-39 0 -61.5 -13.5t-34.5 -37t-15.5 -57.5t-3.5 -73q0 -221 -1 -441t-1 -449zM266 76q27 -25 80 -25h2q43 0 66.5 15.5t35 50.5t12.5 93t1 142v629z" />
<glyph unicode="&#xd9;" horiz-adv-x="700" d="M82 268v1258v4h154v-1178q0 -31 -1.5 -60.5t-1.5 -58.5q0 -41 3.5 -73.5t15.5 -57t35.5 -38t62.5 -13.5h2q43 0 66.5 15.5t35 50.5t12.5 93t1 142v1178h154v-4v-1258q0 -51 -3.5 -93t-17.5 -71q-33 -63 -95.5 -95t-133.5 -32h-41q-72 0 -133.5 32t-94.5 95q-14 29 -17 71 t-3 93zM182 1821h119l88 -213h-74z" />
<glyph unicode="&#xda;" horiz-adv-x="710" d="M82 268v1258v4h154v-1178q0 -31 -1.5 -60.5t-1.5 -58.5q0 -41 3.5 -73.5t15.5 -57t35.5 -38t62.5 -13.5h2q43 0 66.5 15.5t35 50.5t12.5 93t1 142v1178h154v-4v-1258q0 -51 -3.5 -93t-17.5 -71q-33 -63 -95.5 -95t-133.5 -32h-41q-72 0 -133.5 32t-94.5 95q-14 29 -17 71 t-3 93zM281 1608l88 213h118l-133 -213h-73z" />
<glyph unicode="&#xdb;" d="M82 268v1258v4h154v-1178q0 -31 -1.5 -60.5t-1.5 -58.5q0 -41 3.5 -73.5t15.5 -57t35.5 -38t62.5 -13.5h2q43 0 66.5 15.5t35 50.5t12.5 93t1 142v1178h154v-4v-1258q0 -51 -3.5 -93t-17.5 -71q-33 -63 -95.5 -95t-133.5 -32h-41q-72 0 -133.5 32t-94.5 95q-14 29 -17 71 t-3 93zM145 1608l172 213h66l170 -213h-98l-107 125l-104 -125h-99z" />
<glyph unicode="&#xdc;" d="M82 268v1258v4h154v-1178q0 -31 -1.5 -60.5t-1.5 -58.5q0 -41 3.5 -73.5t15.5 -57t35.5 -38t62.5 -13.5h2q43 0 66.5 15.5t35 50.5t12.5 93t1 142v1178h154v-4v-1258q0 -51 -3.5 -93t-17.5 -71q-33 -63 -95.5 -95t-133.5 -32h-41q-72 0 -133.5 32t-94.5 95q-14 29 -17 71 t-3 93zM190 1608v161h121v-161h-121zM377 1608v161h121v-161h-121z" />
<glyph unicode="&#xdd;" horiz-adv-x="663" d="M49 1530h154l151 -684l166 684h78l-201 -862v-668h-157v666zM293 1608l88 213h119l-133 -213h-74z" />
<glyph unicode="&#xe0;" horiz-adv-x="647" d="M59 -2l170 1534h189l190 -1534h-143l-35 283h-246l-41 -283h-84zM164 1821h119l88 -213h-74zM188 360h230l-113 943h-14z" />
<glyph unicode="&#xe1;" horiz-adv-x="714" d="M72 -2l170 1534h188l191 -1534h-144l-35 283h-245l-41 -283h-84zM201 360h229l-113 943h-14zM254 1608l88 213h119l-133 -213h-74z" />
<glyph unicode="&#xe2;" horiz-adv-x="620" d="M39 -2l170 1534h188l191 -1534h-144l-34 283h-246l-41 -283h-84zM92 1608l172 213h66l170 -213h-99l-106 125l-105 -125h-98zM168 360h229l-112 943h-15z" />
<glyph unicode="&#xe3;" horiz-adv-x="698" d="M80 -2l170 1534h188l191 -1534h-144l-34 283h-246l-41 -283h-84zM115 1610q0 78 32.5 120t96.5 42q25 0 49 -4.5t63 -32.5q27 -18 47.5 -36t49.5 -18q27 0 47 14.5t20 63.5h62q0 -78 -33 -120t-96 -42q-25 0 -54.5 8.5t-58.5 28.5q-29 18 -48.5 36t-47.5 18 q-27 0 -47.5 -14.5t-20.5 -63.5h-61zM209 360h229l-112 943h-15z" />
<glyph unicode="&#xe4;" horiz-adv-x="620" d="M39 -2l170 1534h188l191 -1534h-144l-34 283h-246l-41 -283h-84zM152 1608v161h120v-161h-120zM168 360h229l-112 943h-15zM338 1608v161h121v-161h-121z" />
<glyph unicode="&#xe7;" d="M70 1221.5q0 52.5 3 96.5t9 66q25 82 93.5 124t164.5 42q70 0 122 -20.5t86 -53t50 -74.5t16 -85v-164h-155v164q0 78 -22.5 119t-96.5 41q-68 0 -90.5 -39t-22.5 -121v-138q0 -83 -1 -200t-1 -272v-355q0 -61 -1 -116.5t7.5 -96.5t32 -64.5t76.5 -23.5q66 0 92.5 27.5 t26.5 111.5v224h155v-228q0 -33 -15 -67.5t-46 -64t-77 -51t-107 -23.5l-29 -89q47 10 81 -7t52.5 -48t19.5 -67.5t-19.5 -66.5t-62.5 -45t-108 -3l-2 65q45 -12 72.5 -5t41 24.5t13.5 39t-13.5 38t-38 21.5t-57.5 -11l-51 35l35 119q-78 8 -127 40.5t-78 90.5 q-20 41 -23 107.5t-3 146.5v655q0 41 -1 95t-1 106.5z" />
<glyph unicode="&#xe8;" horiz-adv-x="505" d="M55 1530h414v-80h-254v-594h236v-78h-236l2 -700h250v-78h-410zM125 1821h119l88 -213h-74z" />
<glyph unicode="&#xe9;" horiz-adv-x="505" d="M55 1530h414v-80h-254v-594h236v-78h-236l2 -700h250v-78h-410zM166 1608l119 213h118l-163 -213h-74z" />
<glyph unicode="&#xea;" horiz-adv-x="505" d="M55 1530h414v-80h-254v-594h236v-78h-236l2 -700h250v-78h-410zM57 1608l172 213h66l170 -213h-98l-107 125l-104 -125h-99z" />
<glyph unicode="&#xeb;" horiz-adv-x="505" d="M55 1530h414v-80h-254v-594h236v-78h-236l2 -700h250v-78h-410zM102 1608v161h121v-161h-121zM289 1608v161h121v-161h-121z" />
<glyph unicode="&#xec;" horiz-adv-x="432" d="M70 1821h118l88 -213h-73zM139 -4v1536h158v-1536h-158z" />
<glyph unicode="&#xed;" horiz-adv-x="505" d="M145 -4v1536h158v-1536h-158zM162 1608l88 213h119l-133 -213h-74z" />
<glyph unicode="&#xee;" horiz-adv-x="530" d="M57 1608l172 213h66l170 -213h-98l-107 125l-104 -125h-99zM178 -4v1536h158v-1536h-158z" />
<glyph unicode="&#xef;" horiz-adv-x="514" d="M102 1608v161h121v-161h-121zM178 -4v1536h158v-1536h-158zM289 1608v161h121v-161h-121z" />
<glyph unicode="&#xf1;" horiz-adv-x="698" d="M80 0v1530h80l387 -1088v1088h80v-1530h-78l-389 1098v-1098h-80zM115 1610q0 78 32.5 120t96.5 42q25 0 49 -4.5t63 -32.5q27 -18 47.5 -36t49.5 -18q27 0 47 14.5t20 63.5h62q0 -78 -33 -120t-96 -42q-25 0 -54.5 8.5t-58.5 28.5q-29 18 -48.5 36t-47.5 18 q-27 0 -47.5 -14.5t-20.5 -63.5h-61z" />
<glyph unicode="&#xf2;" horiz-adv-x="677" d="M78 268v752q0 41 1 93t3 102.5t6 91.5t10 63q25 82 89.5 131t160.5 49q92 0 157.5 -49t90.5 -131q6 -23 10 -63.5t6 -91t3 -102.5t1 -93v-752q0 -51 -3 -93t-17 -71q-33 -63 -97.5 -95t-152.5 -32q-86 0 -150.5 32t-97.5 95q-14 29 -17 71t-3 93zM207 1821h119l88 -213 h-74zM229 233q0 -41 3.5 -73.5t15.5 -57t35.5 -38t62.5 -13.5h2q43 0 66.5 15.5t35 50.5t12.5 93t1 142v938q0 84 -18.5 135.5t-96.5 51.5h-2q-39 0 -61.5 -13.5t-34.5 -37t-15.5 -57.5t-3.5 -73q0 -262 -1 -525.5t-1 -537.5z" />
<glyph unicode="&#xf3;" horiz-adv-x="681" d="M78 268v752q0 41 1 93t3 102.5t6 91.5t10 63q25 82 89.5 131t160.5 49q92 0 157.5 -49t90.5 -131q6 -23 10 -63.5t6 -91t3 -102.5t1 -93v-752q0 -51 -3 -93t-17 -71q-33 -63 -97.5 -95t-152.5 -32q-86 0 -150.5 32t-97.5 95q-14 29 -17 71t-3 93zM229 233 q0 -41 3.5 -73.5t15.5 -57t35.5 -38t62.5 -13.5h2q43 0 66.5 15.5t35 50.5t12.5 93t1 142v938q0 84 -18.5 135.5t-96.5 51.5h-2q-39 0 -61.5 -13.5t-34.5 -37t-15.5 -57.5t-3.5 -73q0 -262 -1 -525.5t-1 -537.5zM276 1608l89 213h118l-133 -213h-74z" />
<glyph unicode="&#xf4;" d="M78 268v752q0 41 1 93t3 102.5t6 91.5t10 63q25 82 89.5 131t160.5 49q92 0 157.5 -49t90.5 -131q6 -23 10 -63.5t6 -91t3 -102.5t1 -93v-752q0 -51 -3 -93t-17 -71q-33 -63 -97.5 -95t-152.5 -32q-86 0 -150.5 32t-97.5 95q-14 29 -17 71t-3 93zM145 1608l172 213h66 l170 -213h-98l-107 125l-104 -125h-99zM229 233q0 -41 3.5 -73.5t15.5 -57t35.5 -38t62.5 -13.5h2q43 0 66.5 15.5t35 50.5t12.5 93t1 142v938q0 84 -18.5 135.5t-96.5 51.5h-2q-39 0 -61.5 -13.5t-34.5 -37t-15.5 -57.5t-3.5 -73q0 -262 -1 -525.5t-1 -537.5z" />
<glyph unicode="&#xf5;" d="M78 268v752q0 41 1 93t3 102.5t6 91.5t10 63q25 82 89.5 131t160.5 49q92 0 157.5 -49t90.5 -131q6 -23 10 -63.5t6 -91t3 -102.5t1 -93v-752q0 -51 -3 -93t-17 -71q-33 -63 -97.5 -95t-152.5 -32q-86 0 -150.5 32t-97.5 95q-14 29 -17 71t-3 93zM115 1610q0 78 32.5 120 t96.5 42q25 0 49 -4.5t63 -32.5q27 -18 47.5 -36t49.5 -18q27 0 47 14.5t20 63.5h62q0 -78 -33 -120t-96 -42q-25 0 -54.5 8.5t-58.5 28.5q-29 18 -48.5 36t-47.5 18q-27 0 -47.5 -14.5t-20.5 -63.5h-61zM229 233q0 -41 3.5 -73.5t15.5 -57t35.5 -38t62.5 -13.5h2 q43 0 66.5 15.5t35 50.5t12.5 93t1 142v938q0 84 -18.5 135.5t-96.5 51.5h-2q-39 0 -61.5 -13.5t-34.5 -37t-15.5 -57.5t-3.5 -73q0 -262 -1 -525.5t-1 -537.5z" />
<glyph unicode="&#xf6;" d="M78 268v752q0 41 1 93t3 102.5t6 91.5t10 63q25 82 89.5 131t160.5 49q92 0 157.5 -49t90.5 -131q6 -23 10 -63.5t6 -91t3 -102.5t1 -93v-752q0 -51 -3 -93t-17 -71q-33 -63 -97.5 -95t-152.5 -32q-86 0 -150.5 32t-97.5 95q-14 29 -17 71t-3 93zM188 1608v161h121v-161 h-121zM229 233q0 -41 3.5 -73.5t15.5 -57t35.5 -38t62.5 -13.5h2q43 0 66.5 15.5t35 50.5t12.5 93t1 142v938q0 84 -18.5 135.5t-96.5 51.5h-2q-39 0 -61.5 -13.5t-34.5 -37t-15.5 -57.5t-3.5 -73q0 -262 -1 -525.5t-1 -537.5zM375 1608v161h121v-161h-121z" />
<glyph unicode="&#xf8;" d="M78 268v752q0 41 1 93t3 102.5t6 91.5t10 63q25 82 89.5 131t160.5 49q63 0 121 -26l31 139h110l-49 -221q10 -16 19.5 -33.5t15.5 -38.5q6 -23 10 -63.5t6 -91t3 -102.5t1 -93v-752q0 -51 -3 -93t-17 -71q-33 -63 -97.5 -95t-152.5 -32q-55 0 -98 13l-27 -125h-108 l37 174q-16 14 -28.5 29.5t-23.5 35.5q-14 29 -17 71t-3 93zM229 406l217 1011q-10 29 -33.5 44.5t-64.5 15.5h-2q-39 0 -61.5 -13.5t-34.5 -37t-15.5 -57.5t-3.5 -73q0 -221 -1 -441t-1 -449zM266 76q27 -25 80 -25h2q43 0 66.5 15.5t35 50.5t12.5 93t1 142v629z" />
<glyph unicode="&#xf9;" horiz-adv-x="700" d="M82 268v1258v4h154v-1178q0 -31 -1.5 -60.5t-1.5 -58.5q0 -41 3.5 -73.5t15.5 -57t35.5 -38t62.5 -13.5h2q43 0 66.5 15.5t35 50.5t12.5 93t1 142v1178h154v-4v-1258q0 -51 -3.5 -93t-17.5 -71q-33 -63 -95.5 -95t-133.5 -32h-41q-72 0 -133.5 32t-94.5 95q-14 29 -17 71 t-3 93zM182 1821h119l88 -213h-74z" />
<glyph unicode="&#xfa;" horiz-adv-x="710" d="M82 268v1258v4h154v-1178q0 -31 -1.5 -60.5t-1.5 -58.5q0 -41 3.5 -73.5t15.5 -57t35.5 -38t62.5 -13.5h2q43 0 66.5 15.5t35 50.5t12.5 93t1 142v1178h154v-4v-1258q0 -51 -3.5 -93t-17.5 -71q-33 -63 -95.5 -95t-133.5 -32h-41q-72 0 -133.5 32t-94.5 95q-14 29 -17 71 t-3 93zM281 1608l88 213h118l-133 -213h-73z" />
<glyph unicode="&#xfb;" d="M82 268v1258v4h154v-1178q0 -31 -1.5 -60.5t-1.5 -58.5q0 -41 3.5 -73.5t15.5 -57t35.5 -38t62.5 -13.5h2q43 0 66.5 15.5t35 50.5t12.5 93t1 142v1178h154v-4v-1258q0 -51 -3.5 -93t-17.5 -71q-33 -63 -95.5 -95t-133.5 -32h-41q-72 0 -133.5 32t-94.5 95q-14 29 -17 71 t-3 93zM145 1608l172 213h66l170 -213h-98l-107 125l-104 -125h-99z" />
<glyph unicode="&#xfc;" d="M82 268v1258v4h154v-1178q0 -31 -1.5 -60.5t-1.5 -58.5q0 -41 3.5 -73.5t15.5 -57t35.5 -38t62.5 -13.5h2q43 0 66.5 15.5t35 50.5t12.5 93t1 142v1178h154v-4v-1258q0 -51 -3.5 -93t-17.5 -71q-33 -63 -95.5 -95t-133.5 -32h-41q-72 0 -133.5 32t-94.5 95q-14 29 -17 71 t-3 93zM190 1608v161h121v-161h-121zM377 1608v161h121v-161h-121z" />
<glyph unicode="&#xfd;" horiz-adv-x="663" d="M49 1530h154l151 -684l166 684h78l-201 -862v-668h-157v666zM293 1608l88 213h119l-133 -213h-74z" />
<glyph unicode="&#xff;" horiz-adv-x="663" d="M49 1530h154l151 -684l166 684h78l-201 -862v-668h-157v666zM180 1608v161h121v-161h-121zM367 1608v161h120v-161h-120z" />
<glyph unicode="&#x152;" horiz-adv-x="1202" d="M78 268v736q0 41 1 93t3 102t6 91t10 64q25 82 90.5 130t161.5 48h73q32 0 54 -2h400v-80h-254v-594h235v-78h-235l2 -700h249v-78h-409h-117q-86 0 -151.5 31.5t-98.5 95.5q-14 29 -17 59.5t-3 81.5zM229 256q0 -80 20.5 -131t98.5 -51h2h115l-2 1386h-113l-2 -2 q-78 0 -97.5 -49t-19.5 -129v-256q0 -125 -1 -250t-1 -253v-265z" />
<glyph unicode="&#x153;" horiz-adv-x="1202" d="M78 268v736q0 41 1 93t3 102t6 91t10 64q25 82 90.5 130t161.5 48h73q32 0 54 -2h400v-80h-254v-594h235v-78h-235l2 -700h249v-78h-409h-117q-86 0 -151.5 31.5t-98.5 95.5q-14 29 -17 59.5t-3 81.5zM229 256q0 -80 20.5 -131t98.5 -51h2h115l-2 1386h-113l-2 -2 q-78 0 -97.5 -49t-19.5 -129v-256q0 -125 -1 -250t-1 -253v-265z" />
<glyph unicode="&#x178;" horiz-adv-x="663" d="M49 1530h154l151 -684l166 684h78l-201 -862v-668h-157v666zM180 1608v161h121v-161h-121zM367 1608v161h120v-161h-120z" />
<glyph unicode="&#x2c6;" horiz-adv-x="532" d="M57 1608l172 213h66l170 -213h-98l-107 125l-104 -125h-99z" />
<glyph unicode="&#x2dc;" horiz-adv-x="659" d="M104 1610q0 78 33 120t96 42q25 0 49.5 -4.5t63.5 -32.5q27 -18 47.5 -36t48.5 -18q27 0 47.5 14.5t20.5 63.5h61q0 -78 -32.5 -120t-96.5 -42q-25 0 -54.5 8.5t-57.5 28.5q-29 18 -48.5 36t-48.5 18q-27 0 -47 -14.5t-20 -63.5h-62z" />
<glyph unicode="&#x2000;" horiz-adv-x="909" />
<glyph unicode="&#x2001;" horiz-adv-x="1820" />
<glyph unicode="&#x2002;" horiz-adv-x="909" />
<glyph unicode="&#x2003;" horiz-adv-x="1820" />
<glyph unicode="&#x2004;" horiz-adv-x="606" />
<glyph unicode="&#x2005;" horiz-adv-x="454" />
<glyph unicode="&#x2006;" horiz-adv-x="303" />
<glyph unicode="&#x2007;" horiz-adv-x="303" />
<glyph unicode="&#x2008;" horiz-adv-x="227" />
<glyph unicode="&#x2009;" horiz-adv-x="362" />
<glyph unicode="&#x200a;" horiz-adv-x="100" />
<glyph unicode="&#x2010;" horiz-adv-x="471" d="M49 670v108h369v-108h-369z" />
<glyph unicode="&#x2011;" horiz-adv-x="471" d="M49 670v108h369v-108h-369z" />
<glyph unicode="&#x2012;" horiz-adv-x="471" d="M49 670v108h369v-108h-369z" />
<glyph unicode="&#x2013;" horiz-adv-x="710" d="M78 670v106h551v-106h-551z" />
<glyph unicode="&#x2014;" horiz-adv-x="763" d="M57 670v108h645v-108h-645z" />
<glyph unicode="&#x2018;" horiz-adv-x="237" d="M49 1161v185l60 184h73l-43 -187h51v-182h-141z" />
<glyph unicode="&#x2019;" horiz-adv-x="245" d="M49 1348v182h141v-184l-59 -185h-74l43 187h-51z" />
<glyph unicode="&#x201c;" horiz-adv-x="430" d="M49 1346v184h141v-182h-51l43 -187h-73zM244 1346v184h141v-182h-51l43 -187h-74z" />
<glyph unicode="&#x201d;" horiz-adv-x="432" d="M49 1348v182h141v-184l-59 -185h-74l43 187h-51zM244 1348v182h141v-184l-59 -185h-74l43 187h-51z" />
<glyph unicode="&#x201e;" horiz-adv-x="1705" />
<glyph unicode="&#x2026;" horiz-adv-x="768" d="M57 0v182h142v-182h-142zM313 0v182h142v-182h-142zM569 0v182h142v-182h-142z" />
<glyph unicode="&#x202f;" horiz-adv-x="362" />
<glyph unicode="&#x2039;" horiz-adv-x="999" d="M119 786v84l758 406v-133l-623 -320l623 -317v-129z" />
<glyph unicode="&#x203a;" horiz-adv-x="999" d="M119 377v129l622 317l-622 320v133l758 -406v-84z" />
<glyph unicode="&#x2044;" horiz-adv-x="1024" d="M113 -135l387 1814h110l-389 -1814h-108z" />
<glyph unicode="&#x205f;" horiz-adv-x="454" />
<glyph unicode="&#x2122;" horiz-adv-x="1409" d="M702 -2v1538h156l166 -1018l168 1014h157v-1536h-157v1048l-127 -768h-158l-125 768v-1046h-80zM49 1450v80h545v-80h-195v-1450h-157v1450h-193z" />
<glyph unicode="&#xe000;" horiz-adv-x="1530" d="M0 1530h1530v-1530h-1530v1530z" />
<glyph unicode="&#xfb01;" horiz-adv-x="862" d="M621 -4v1536h158v-1536h-158zM86 1530h414v-80h-254v-590h235v-78h-235q3 -169 3 -325v-77q-1 -191 -1 -380h-160z" />
<glyph unicode="&#xfb02;" horiz-adv-x="1034" d="M592 1530h160l2 -1448h250v-82h-410zM86 1530h414v-80h-254v-590h235v-78h-235q3 -169 3 -325v-77q-1 -191 -1 -380h-160z" />
<glyph unicode="&#xfb03;" horiz-adv-x="1398" d="M1157 -4v1536h158v-1536h-158zM623 1530h414v-80h-254v-590h235v-78h-235q3 -169 3 -325v-77q-1 -191 -1 -380h-160zM86 1530h414v-80h-254v-590h235v-78h-235q3 -169 3 -325v-77q-1 -191 -1 -380h-160z" />
<glyph unicode="&#xfb04;" horiz-adv-x="1570" d="M1128 1530h160l2 -1448h250v-82h-410zM623 1530h414v-80h-254v-590h235v-78h-235q3 -169 3 -325v-77q-1 -191 -1 -380h-160zM86 1530h414v-80h-254v-590h235v-78h-235q3 -169 3 -325v-77q-1 -191 -1 -380h-160z" />
</font>
</defs>
</svg>
